<svg xmlns="http://www.w3.org/2000/svg" id="prefix__podcast_1_" width="53.125" height="76.874" data-name="podcast (1)" viewBox="0 0 53.125 76.874">
    <defs>
        <filter id="prefix__Path_167" width="21.399" height="31.597" x="18.129" y="45.277" filterUnits="userSpaceOnUse">
            <feOffset dy="3"/>
            <feGaussianBlur result="blur" stdDeviation="3"/>
            <feFlood flood-opacity=".161"/>
            <feComposite in2="blur" operator="in"/>
            <feComposite in="SourceGraphic"/>
        </filter>
        <filter id="prefix__Path_169" width="34.996" height="48.593" x="11.33" y="11.285" filterUnits="userSpaceOnUse">
            <feOffset dy="3"/>
            <feGaussianBlur result="blur-2" stdDeviation="3"/>
            <feFlood flood-opacity=".161"/>
            <feComposite in2="blur-2" operator="in"/>
            <feComposite in="SourceGraphic"/>
        </filter>
        <filter id="prefix__Path_171" width="48.593" height="41.795" x="4.532" y="24.882" filterUnits="userSpaceOnUse">
            <feOffset dy="3"/>
            <feGaussianBlur result="blur-3" stdDeviation="3"/>
            <feFlood flood-opacity=".161"/>
            <feComposite in2="blur-3" operator="in"/>
            <feComposite in="SourceGraphic"/>
        </filter>
        <filter id="prefix__Path_172" width="33.297" height="41.795" x="19.829" y="24.882" filterUnits="userSpaceOnUse">
            <feOffset dy="3"/>
            <feGaussianBlur result="blur-4" stdDeviation="3"/>
            <feFlood flood-opacity=".161"/>
            <feComposite in2="blur-4" operator="in"/>
            <feComposite in="SourceGraphic"/>
        </filter>
        <filter id="prefix__Path_173" width="34.996" height="21.399" x="11.33" y="55.475" filterUnits="userSpaceOnUse">
            <feOffset dy="3"/>
            <feGaussianBlur result="blur-5" stdDeviation="3"/>
            <feFlood flood-opacity=".161"/>
            <feComposite in2="blur-5" operator="in"/>
            <feComposite in="SourceGraphic"/>
        </filter>
        <style>
            .prefix__cls-1{fill:#6aa9ff}.prefix__cls-3{fill:#fff}.prefix__cls-5{fill:#7ed8f6}
        </style>
    </defs>
    <g id="prefix__Group_154" data-name="Group 154">
        <g id="prefix__Group_149" data-name="Group 149" transform="translate(-.001 -.003)">
            <path id="prefix__Path_167-2" d="M365.4 362.687v10.2a1.7 1.7 0 1 1-3.4 0v-10.2a1.7 1.7 0 1 1 3.4 0z" class="prefix__cls-1" data-name="Path 167" transform="translate(-334.87 -309.71)"/>
        </g>
        <path id="prefix__Path_168" d="M378.7 362.687v10.2a1.7 1.7 0 0 1-1.7 1.7v-13.6a1.7 1.7 0 0 1 1.7 1.7z" data-name="Path 168" transform="translate(-348.171 -309.71)" style="fill:#4895ff"/>
        <g id="prefix__Group_150" data-name="Group 150" transform="translate(0 .005)">
            <path id="prefix__Path_169-2" d="M310.5 60.987a8.508 8.508 0 0 0-8.5 8.5v13.6a8.5 8.5 0 0 0 17 0v-13.6a8.508 8.508 0 0 0-8.5-8.5z" class="prefix__cls-3" data-name="Path 169" transform="translate(-281.67 -43.7)"/>
        </g>
        <path id="prefix__Path_170" d="M385.5 69.485v13.6a8.508 8.508 0 0 1-8.5 8.5V60.987a8.508 8.508 0 0 1 8.5 8.498z" data-name="Path 170" transform="translate(-348.171 -43.702)" style="fill:rgba(199,207,225,.47)"/>
        <g id="prefix__Group_151" data-name="Group 151" transform="translate(.002 .002)">
            <path id="prefix__Path_171-2" d="M272.593 182.687v6.8a15.3 15.3 0 0 1-30.593 0v-6.8a1.7 1.7 0 1 1 3.4 0v6.8a11.9 11.9 0 0 0 23.795 0v-6.8a1.7 1.7 0 1 1 3.4 0z" class="prefix__cls-5" data-name="Path 171" transform="translate(-228.47 -150.11)"/>
        </g>
        <g>
            <path id="prefix__Path_172-2" d="M392.3 182.687v6.8a15.314 15.314 0 0 1-15.3 15.3v-3.4a11.91 11.91 0 0 0 11.9-11.9v-6.8a1.7 1.7 0 0 1 3.4 0z" class="prefix__cls-1" data-name="Path 172" transform="translate(-348.17 -150.11)"/>
        </g>
        <g id="prefix__Group_152" data-name="Group 152" transform="translate(0 .005)">
            <path id="prefix__Path_173-2" d="M319 452.687a1.7 1.7 0 0 1-1.7 1.7h-13.6a1.7 1.7 0 1 1 0-3.4h13.6a1.7 1.7 0 0 1 1.7 1.7z" class="prefix__cls-5" data-name="Path 173" transform="translate(-281.67 -389.51)"/>
        </g>
        <path id="prefix__Path_174" d="M385.5 452.687a1.7 1.7 0 0 1-1.7 1.7H377v-3.4h6.8a1.7 1.7 0 0 1 1.7 1.7z" class="prefix__cls-1" data-name="Path 174" transform="translate(-348.171 -389.512)"/>
        <g id="prefix__Group_153" data-name="Group 153">
            <path id="prefix__Path_175" d="M30.82 42.908a1.7 1.7 0 0 1-1.7 1.7h-3.512a1.7 1.7 0 0 1-1.521-.939l-1.706-3.414-5.393 13.481a1.7 1.7 0 0 1-3.191-.094L8.611 38.084l-1.786 5.361a1.7 1.7 0 0 1-1.612 1.163H1.7a1.7 1.7 0 0 1 0-3.4h2.287L7 32.173a1.7 1.7 0 0 1 3.225 0l5.185 15.558.145.435 5.075-12.688a1.7 1.7 0 0 1 3.1-.129l2.929 5.859h2.461a1.7 1.7 0 0 1 1.7 1.7z" class="prefix__cls-3" data-name="Path 175" transform="translate(0 -31.013)"/>
        </g>
        <path id="prefix__Path_176" d="M151.41 69.5a1.7 1.7 0 0 1-1.7 1.7h-3.51a1.7 1.7 0 0 1-1.521-.939l-1.706-3.414-5.392 13.482A1.67 1.67 0 0 1 136 81.4v-7.074l.145.435 5.075-12.688a1.7 1.7 0 0 1 3.1-.129l2.929 5.859h2.462a1.7 1.7 0 0 1 1.699 1.697z" data-name="Path 176" transform="translate(-120.59 -57.608)" style="fill:#ecdfc0"/>
    </g>
</svg>
