<svg xmlns="http://www.w3.org/2000/svg" viewBox="0 0 80 80">
  <defs>
    <style>
      .a {
        fill: #f9bc15;
      }

      .b {
        fill: #ea4435;
      }

      .c {
        fill: #547dbf;
      }

      .d {
        fill: #33a852;
      }

      .e {
        fill: #fff;
      }
    </style>
  </defs>
  <g>
    <g>
      <path class="a" d="M15.46,29.82a40,40,0,0,0,0,40.41L41.3,49.79Z" transform="translate(-10 -10)"/>
      <path class="b" d="M45.61,53.15,77.48,20.93a40,40,0,0,0-62,8.89l25.84,20Z" transform="translate(-10 -10)"/>
      <path class="c" d="M90,50A39.91,39.91,0,0,0,77.48,20.93L45.61,53.15,78,78.55A39.91,39.91,0,0,0,90,50Z" transform="translate(-10 -10)"/>
      <path class="d" d="M41.3,49.79,15.49,70.23A40,40,0,0,0,78,78.55L45.61,53.15Z" transform="translate(-10 -10)"/>
    </g>
    <path class="e" d="M78.59,50.67a34.74,34.74,0,0,0-.5-5.93H50.58V56H66.33a13.48,13.48,0,0,1-5.83,8.86h0a17.69,17.69,0,0,1-26.29-9.25h0A17.63,17.63,0,0,1,50.58,32.38a15.82,15.82,0,0,1,11.18,4.37l8.33-8.33a28,28,0,0,0-19.51-7.58,29.17,29.17,0,1,0,0,58.33c7.86,0,14.5-2.59,19.33-7h0C75.42,67,78.59,59.54,78.59,50.67Z" transform="translate(-10 -10)"/>
  </g>
</svg>
