<svg xmlns="http://www.w3.org/2000/svg" xmlns:xlink="http://www.w3.org/1999/xlink" viewBox="0 0 80 80">
  <defs>
    <style>
      .a {
        fill: url(#a);
      }

      .b {
        fill: #fff;
      }
    </style>
    <radialGradient id="a" data-name="Unbenannter Verlauf 173" cx="17.11" cy="74.57" r="81.71" gradientUnits="userSpaceOnUse">
      <stop offset="0" stop-color="#fddd83"/>
      <stop offset="0.27" stop-color="#f79031"/>
      <stop offset="0.52" stop-color="#dc2d72"/>
      <stop offset="0.78" stop-color="#a03d97"/>
      <stop offset="1" stop-color="#4c69b1"/>
    </radialGradient>
  </defs>
  <g>
    <circle class="a" cx="40" cy="40" r="40"/>
    <g>
      <path class="b" d="M50,26.09c7.79,0,8.71,0,11.79.17a16.15,16.15,0,0,1,5.41,1,9.61,9.61,0,0,1,5.54,5.54,16.15,16.15,0,0,1,1,5.41c.14,3.08.17,4,.17,11.79s0,8.71-.17,11.79a16.15,16.15,0,0,1-1,5.41,9.61,9.61,0,0,1-5.54,5.54,16.15,16.15,0,0,1-5.41,1c-3.08.14-4,.17-11.79.17s-8.71,0-11.79-.17a16.15,16.15,0,0,1-5.41-1,9.61,9.61,0,0,1-5.54-5.54,16.15,16.15,0,0,1-1-5.41c-.14-3.08-.17-4-.17-11.79s0-8.71.17-11.79a16.15,16.15,0,0,1,1-5.41,9.61,9.61,0,0,1,5.54-5.54,16.15,16.15,0,0,1,5.41-1c3.08-.14,4-.17,11.79-.17m0-5.26c-7.92,0-8.91,0-12,.18a21.35,21.35,0,0,0-7.08,1.35,15,15,0,0,0-8.54,8.54A21.35,21.35,0,0,0,21,38c-.14,3.11-.18,4.1-.18,12s0,8.91.18,12a21.46,21.46,0,0,0,1.35,7.08,15,15,0,0,0,8.54,8.53A21.35,21.35,0,0,0,38,79c3.11.14,4.1.18,12,.18s8.91,0,12-.18a21.46,21.46,0,0,0,7.08-1.35,15,15,0,0,0,8.53-8.53A21.46,21.46,0,0,0,79,62c.14-3.12.18-4.11.18-12s0-8.91-.18-12a21.35,21.35,0,0,0-1.35-7.08,15,15,0,0,0-8.53-8.54A21.46,21.46,0,0,0,62,21c-3.12-.14-4.11-.18-12-.18Z" transform="translate(-10 -10)"/>
      <path class="b" d="M50,35A15,15,0,1,0,65,50,15,15,0,0,0,50,35Zm0,24.7A9.72,9.72,0,1,1,59.72,50,9.72,9.72,0,0,1,50,59.72Z" transform="translate(-10 -10)"/>
      <path class="b" d="M69.07,34.43a3.5,3.5,0,1,1-3.5-3.5A3.5,3.5,0,0,1,69.07,34.43Z" transform="translate(-10 -10)"/>
    </g>
  </g>
</svg>
