<svg xmlns="http://www.w3.org/2000/svg" xmlns:xlink="http://www.w3.org/1999/xlink" viewBox="0 0 80 80">
  <defs>
    <style>
      .a {
        fill: url(#a);
      }

      .b {
        fill: #fff;
      }
    </style>
    <linearGradient id="a" data-name="Unbenannter Verlauf 188" y1="40" x2="80" y2="40" gradientUnits="userSpaceOnUse">
      <stop offset="0" stop-color="#04a0d7"/>
      <stop offset="1" stop-color="#0073b0"/>
    </linearGradient>
  </defs>
  <g>
    <circle class="a" cx="40" cy="40" r="40"/>
    <g>
      <path class="b" d="M37.67,32.6c0,2.66-2,4.81-5.2,4.81a4.82,4.82,0,1,1,.13-9.63A4.77,4.77,0,0,1,37.67,32.6Zm-10,39.62v-31h9.63v31Z" transform="translate(-10 -10)"/>
      <path class="b" d="M43.12,51.11c0-3.87-.13-7.1-.25-9.89h8.37l.44,4.31h.19a11.13,11.13,0,0,1,9.57-5c6.34,0,11.1,4.25,11.1,13.38V72.22H62.9V55c0-4-1.39-6.72-4.88-6.72a5.31,5.31,0,0,0-5,3.61,7.09,7.09,0,0,0-.31,2.41V72.22H43.12Z" transform="translate(-10 -10)"/>
    </g>
  </g>
</svg>
