<svg xmlns="http://www.w3.org/2000/svg" xmlns:xlink="http://www.w3.org/1999/xlink" viewBox="0 0 80 80">
  <defs>
    <style>
      .a {
        fill: url(#a);
      }

      .b {
        fill: #fff;
      }
    </style>
    <linearGradient id="a" data-name="Unbenannter Verlauf 172" y1="40" x2="80" y2="40" gradientUnits="userSpaceOnUse">
      <stop offset="0" stop-color="#e34925"/>
      <stop offset="0.61" stop-color="#e42c26"/>
      <stop offset="1" stop-color="#e51e26"/>
    </linearGradient>
  </defs>
  <g>
    <circle class="a" cx="40" cy="40" r="40"/>
    <path class="b" d="M51,20.7C32.56,20.7,22.83,33,22.83,46.44c0,6.26,3.33,14,8.65,16.49.8.38,1.26.21,1.43-.56.14-.6.88-3.51,1.19-4.84a1.22,1.22,0,0,0-.28-1.22,16.63,16.63,0,0,1-3.15-9.7c0-9.38,7.11-18.45,19.23-18.45,10.46,0,17.78,7.11,17.78,17.3,0,11.48-5.81,19.46-13.37,19.46-4.17,0-7.32-3.46-6.31-7.7,1.23-5.08,3.54-10.54,3.54-14.18,0-3.26-1.75-6-5.39-6-4.27,0-7.7,4.41-7.7,10.33a15.46,15.46,0,0,0,1.26,6.3s-4.21,17.82-5,21.15c-.83,3.63-.54,8.72-.16,12.09,1,.4,1.94.76,2.93,1.09,1.75-2.85,4.28-7.39,5.21-11,.52-2,2.66-10.12,2.66-10.12,1.36,2.66,5.43,4.9,9.73,4.9,12.82,0,22.06-11.8,22.06-26.47C77.17,31.21,65.69,20.7,51,20.7Z" transform="translate(-10 -10)"/>
  </g>
</svg>
