<svg xmlns="http://www.w3.org/2000/svg" xmlns:xlink="http://www.w3.org/1999/xlink" viewBox="0 0 80 80">
  <defs>
    <style>
      .a {
        fill: url(#a);
      }

      .b {
        fill: #fff;
      }
    </style>
    <linearGradient id="a" data-name="Unbenannter Verlauf 185" x1="4.68" y1="21.22" x2="75.33" y2="58.78" gradientUnits="userSpaceOnUse">
      <stop offset="0" stop-color="#f47821"/>
      <stop offset="0.32" stop-color="#f26422"/>
      <stop offset="0.72" stop-color="#f15023"/>
      <stop offset="1" stop-color="#f04923"/>
    </linearGradient>
  </defs>
  <g>
    <circle class="a" cx="40" cy="40" r="40"/>
    <path class="b" d="M79.93,50.47a6.55,6.55,0,0,0-11.1-4.71A32,32,0,0,0,51.32,40.2l3-14,9.75,2.07a4.69,4.69,0,1,0,.48-2.29L53.64,23.63a1.19,1.19,0,0,0-.88.16,1.16,1.16,0,0,0-.5.74L48.93,40.19a32.29,32.29,0,0,0-17.78,5.55,6.55,6.55,0,1,0-7.21,10.7,13,13,0,0,0-.15,2c0,10.08,11.73,18.25,26.2,18.25S76.18,68.5,76.18,58.42a13,13,0,0,0-.15-2A6.55,6.55,0,0,0,79.93,50.47ZM35,55.15a4.68,4.68,0,1,1,4.68,4.67A4.69,4.69,0,0,1,35,55.15ZM61.11,67.51C57.92,70.7,51.8,70.94,50,70.94s-7.92-.24-11.11-3.43a1.22,1.22,0,0,1,1.72-1.72c2,2,6.31,2.73,9.39,2.73s7.38-.71,9.4-2.73a1.21,1.21,0,0,1,1.71,1.72Zm-.82-7.68A4.68,4.68,0,1,1,65,55.15,4.69,4.69,0,0,1,60.29,59.83Z" transform="translate(-10 -10)"/>
  </g>
</svg>
