<svg xmlns="http://www.w3.org/2000/svg" xmlns:xlink="http://www.w3.org/1999/xlink" viewBox="0 0 80 80">
  <defs>
    <style>
      .a {
        fill: url(#a);
      }

      .b {
        fill: #fff;
        fill-rule: evenodd;
      }
    </style>
    <linearGradient id="a" data-name="Unbenannter Verlauf 182" x1="12.48" y1="9.64" x2="66.54" y2="69.27" gradientUnits="userSpaceOnUse">
      <stop offset="0" stop-color="#3da9df"/>
      <stop offset="1" stop-color="#239ed9"/>
    </linearGradient>
  </defs>
  <g>
    <circle class="a" cx="40" cy="40" r="40"/>
    <path class="b" d="M23.71,49q21.6-9.41,28.8-12.4c13.71-5.71,16.56-6.7,18.42-6.73a3.25,3.25,0,0,1,1.92.57,2.1,2.1,0,0,1,.7,1.34,8.75,8.75,0,0,1,.08,1.94c-.74,7.81-4,26.76-5.59,35.51-.7,3.7-2.06,4.94-3.38,5.06-2.87.26-5-1.9-7.82-3.72-4.35-2.84-6.8-4.62-11-7.4-4.88-3.21-1.72-5,1.06-7.86.73-.76,13.36-12.25,13.61-13.29a1,1,0,0,0-.23-.88,1.16,1.16,0,0,0-1-.1q-.66.15-20.83,13.77a9.45,9.45,0,0,1-5.36,2A35.34,35.34,0,0,1,25.38,55c-3.1-1-5.56-1.53-5.34-3.24Q20.2,50.39,23.71,49Z" transform="translate(-10 -10)"/>
  </g>
</svg>
