<svg xmlns="http://www.w3.org/2000/svg" xmlns:xlink="http://www.w3.org/1999/xlink" viewBox="0 0 80 80">
  <defs>
    <style>
      .a {
        fill: url(#a);
      }

      .b {
        fill: #fff;
      }
    </style>
    <linearGradient id="a" data-name="Unbenannter Verlauf 179" x1="12.48" y1="9.64" x2="66.54" y2="69.27" gradientUnits="userSpaceOnUse">
      <stop offset="0" stop-color="#67cef4"/>
      <stop offset="0.36" stop-color="#4bbeec"/>
      <stop offset="0.76" stop-color="#32b0e5"/>
      <stop offset="1" stop-color="#29abe2"/>
    </linearGradient>
  </defs>
  <g>
    <circle class="a" cx="40" cy="40" r="40"/>
    <path class="b" d="M74.84,54.45a25.9,25.9,0,0,0,.42-4.57A25.24,25.24,0,0,0,50,24.63a25.54,25.54,0,0,0-4.78.45h0A14.94,14.94,0,0,0,25.15,45.53a25.25,25.25,0,0,0,29.29,29.2,14.94,14.94,0,0,0,20.4-20.28ZM50.11,65.34c-9,0-13-4.41-13-7.72a2.82,2.82,0,0,1,3-2.88c3.84,0,2.84,5.51,10,5.51,3.67,0,5.69-2,5.69-4,0-1.22-.6-2.58-3-3.17l-8-2c-6.43-1.61-7.59-5.08-7.59-8.34,0-6.78,6.38-9.33,12.38-9.33,5.52,0,12,3,12,7.12,0,1.74-1.51,2.76-3.23,2.76-3.27,0-2.67-4.54-9.27-4.54-3.27,0-5.09,1.48-5.09,3.61s2.59,2.79,4.83,3.3l5.91,1.31c6.47,1.44,8.11,5.22,8.11,8.77C62.88,61.22,58.65,65.34,50.11,65.34Z" transform="translate(-10 -10)"/>
  </g>
</svg>
