<svg xmlns="http://www.w3.org/2000/svg" xmlns:xlink="http://www.w3.org/1999/xlink" viewBox="0 0 80 80">
  <defs>
    <style>
      .a {
        fill: url(#a);
      }

      .b {
        fill: #fff;
      }
    </style>
    <linearGradient id="a" data-name="Unbenannter Verlauf 166" y1="40" x2="80" y2="40" gradientUnits="userSpaceOnUse">
      <stop offset="0" stop-color="#4bc5dc"/>
      <stop offset="1" stop-color="#1eb7eb"/>
    </linearGradient>
  </defs>
  <g>
    <circle class="a" cx="40" cy="40" r="40"/>
    <path class="b" d="M78.25,40.89q-.39,8.52-11.9,23.32Q54.46,79.66,46.22,79.67q-5.1,0-8.63-9.41L32.89,53q-2.62-9.41-5.62-9.41-.66,0-4.58,2.74l-2.75-3.53q4.32-3.8,8.52-7.59,5.76-5,8.64-5.24,6.81-.66,8.38,9.31Q47.19,50,47.84,52.63q2,8.92,4.32,8.92c1.22,0,3.06-1.93,5.5-5.79S61.41,49,61.59,47q.52-5-3.93-5a10.84,10.84,0,0,0-4.31,1q4.29-14.08,16.42-13.69Q78.77,29.5,78.25,40.89Z" transform="translate(-10 -10)"/>
  </g>
</svg>
