<svg xmlns="http://www.w3.org/2000/svg" xmlns:xlink="http://www.w3.org/1999/xlink" viewBox="0 0 80 80">
  <defs>
    <style>
      .a {
        fill: url(#a);
      }

      .b {
        fill: #fff;
        fill-rule: evenodd;
      }
    </style>
    <linearGradient id="a" data-name="Unbenannter Verlauf 176" x1="12.48" y1="9.64" x2="66.54" y2="69.27" gradientUnits="userSpaceOnUse">
      <stop offset="0" stop-color="#61a2ca"/>
      <stop offset="0.17" stop-color="#5d9ac6"/>
      <stop offset="0.65" stop-color="#5488bc"/>
      <stop offset="1" stop-color="#5181b8"/>
    </linearGradient>
  </defs>
  <g>
    <circle class="a" cx="40" cy="40" r="40"/>
    <path class="b" d="M77.67,36.41c.42-1.39,0-2.41-2-2.41H69.14a2.84,2.84,0,0,0-2.85,1.85S63,44,58.24,49.24c-1.52,1.53-2.22,2-3.05,2-.42,0-1-.49-1-1.88v-13c0-1.67-.48-2.41-1.87-2.41H42a1.58,1.58,0,0,0-1.67,1.51c0,1.57,2.36,1.94,2.6,6.38v9.64c0,2.12-.38,2.5-1.21,2.5-2.22,0-7.62-8.15-10.83-17.48C30.28,34.73,29.65,34,28,34H21.42c-1.87,0-2.24.88-2.24,1.85,0,1.74,2.22,10.34,10.34,21.72,5.41,7.77,13,12,20,12,4.17,0,4.68-.94,4.68-2.55V61.13c0-1.87.4-2.24,1.71-2.24,1,0,2.64.49,6.53,4.23,4.44,4.44,5.17,6.44,7.67,6.44h6.55c1.87,0,2.8-.94,2.26-2.79s-2.71-4.51-5.52-7.67c-1.53-1.81-3.82-3.75-4.51-4.72-1-1.25-.69-1.8,0-2.92,0,0,8-11.24,8.81-15.05Z" transform="translate(-10 -10)"/>
  </g>
</svg>
