<svg xmlns="http://www.w3.org/2000/svg" xmlns:xlink="http://www.w3.org/1999/xlink" viewBox="0 0 80 80">
  <defs>
    <style>
      .a {
        fill: url(#a);
      }

      .b {
        fill: #fff;
      }
    </style>
    <linearGradient id="a" data-name="Unbenannter Verlauf 192" y1="40" x2="80" y2="40" gradientUnits="userSpaceOnUse">
      <stop offset="0" stop-color="#71c168"/>
      <stop offset="1" stop-color="#26b04b"/>
    </linearGradient>
  </defs>
  <g>
    <circle class="a" cx="40" cy="40" r="40"/>
    <g>
      <path class="b" d="M78.82,46.42a28.85,28.85,0,0,0-45.3-20.31h0A29.23,29.23,0,0,0,21.46,46,28.84,28.84,0,0,0,24.9,63.87c.09.14.22.29.13.47l-3.7,13.55c.31.32.63.63,1,.94l14.08-3.65a28.85,28.85,0,0,0,30.49-1.85,28.85,28.85,0,0,0,12-26.91Zm-5.67,10a24.18,24.18,0,0,1-9.1,12.87,23.89,23.89,0,0,1-26.31,1c-.31-.17-.62-.47-1-.33-2.94.74-5.87,1.53-8.79,2.28l2.33-8.57c.11-.32-.13-.58-.27-.83a24.05,24.05,0,0,1-3.89-13.73,23.78,23.78,0,0,1,3.16-11.3,24.11,24.11,0,0,1,11-10l0,.05A24,24,0,0,1,73.15,56.41Z" transform="translate(-10 -10)"/>
      <path class="b" d="M64.07,56,58.8,53.47c-.82-.34-1.37-.57-2,.25-.74,1-1.51,2-2.34,2.87a1,1,0,0,1-1.19.22,17.87,17.87,0,0,1-10.1-8.72.92.92,0,0,1,0-1.1,10.28,10.28,0,0,0,2.14-2.94,1.62,1.62,0,0,0-.13-1.18c-.79-1.8-1.45-3.64-2.27-5.42-.25-.51-.67-1.09-1.32-1.1l0,0c-2.93-.17-4.1.86-5.43,3.54a8.73,8.73,0,0,0-.11,6.36,23.65,23.65,0,0,0,3.65,6.23C44,58,49.93,62.8,58.58,63.43c3.35-.11,6.55-2.88,6.28-6.45C64.9,56.5,64.49,56.19,64.07,56Z" transform="translate(-10 -10)"/>
    </g>
  </g>
</svg>
