<svg xmlns="http://www.w3.org/2000/svg" xmlns:xlink="http://www.w3.org/1999/xlink" viewBox="0 0 80 80">
  <defs>
    <style>
      .a {
        fill: url(#a);
      }

      .b {
        fill: #fff;
      }
    </style>
    <linearGradient id="a" data-name="Unbenannter Verlauf 10" y1="40" x2="80" y2="40" gradientUnits="userSpaceOnUse">
      <stop offset="0" stop-color="#037460"/>
      <stop offset="1" stop-color="#dfe145"/>
    </linearGradient>
  </defs>
  <g>
    <circle class="a" cx="40" cy="40" r="40"/>
    <g>
      <path class="b" d="M29.7,34.22A1.15,1.15,0,0,0,28.6,36l5.69,9.84a0,0,0,0,1,0,0L25.35,61.71a1.31,1.31,0,0,0,0,1.29,1.24,1.24,0,0,0,1.1.57h8.41A2.58,2.58,0,0,0,37.16,62l9.08-16.06L40.46,35.8a2.61,2.61,0,0,0-2.35-1.58Z" transform="translate(-10 -10)"/>
      <path class="b" d="M65,22.7a2.47,2.47,0,0,0-2.25,1.6S44.67,56.45,44.07,57.5L56,79.43A2.62,2.62,0,0,0,58.37,81h8.41a1.24,1.24,0,0,0,1.11-.53,1.31,1.31,0,0,0,0-1.3L56,57.53a0,0,0,0,1,0-.06L74.64,24.54a1.31,1.31,0,0,0,0-1.3,1.24,1.24,0,0,0-1.12-.54Z" transform="translate(-10 -10)"/>
    </g>
  </g>
</svg>
