<svg xmlns="http://www.w3.org/2000/svg" xmlns:xlink="http://www.w3.org/1999/xlink" viewBox="0 0 80 80">
  <defs>
    <style>
      .a {
        fill: url(#a);
      }

      .b {
        fill: #fff;
      }
    </style>
    <linearGradient id="a" data-name="Unbenannter Verlauf 167" y1="40" x2="80" y2="40" gradientUnits="userSpaceOnUse">
      <stop offset="0" stop-color="#f15a2c"/>
      <stop offset="1" stop-color="#ed2024"/>
    </linearGradient>
  </defs>
  <g>
    <circle class="a" cx="40" cy="40" r="40"/>
    <path class="b" d="M78,35.87a7.31,7.31,0,0,0-5.16-5.19C68.24,29.45,50,29.45,50,29.45s-18.24,0-22.79,1.23a7.31,7.31,0,0,0-5.16,5.19C20.83,40.45,20.83,50,20.83,50s0,9.55,1.22,14.13a7.31,7.31,0,0,0,5.16,5.19C31.76,70.55,50,70.55,50,70.55s18.24,0,22.79-1.23A7.31,7.31,0,0,0,78,64.13C79.17,59.55,79.17,50,79.17,50S79.17,40.45,78,35.87ZM44,58.67V41.33L59.28,50Z" transform="translate(-10 -10)"/>
  </g>
</svg>
